<svg width="308" height="78" viewBox="0 0 308 78" fill="none" xmlns="http://www.w3.org/2000/svg">
<path d="M0 26.9912C0 21.7728 2.90234 16.9875 7.53005 14.5759L34.1968 0.679154C35.0529 0.232978 36.0041 0 36.9696 0H44.6189C45.5278 0 46.4247 0.206459 47.2421 0.603793L82 17.5L61 29L21 9V28L41 38.5L21 49L0 38.5V26.9912Z" fill="white"/>
<path d="M82 51.0088C82 56.2272 79.0977 61.0125 74.4699 63.4241L47.8032 77.3208C46.9471 77.767 45.9959 78 45.0304 78H37.3811C36.4722 78 35.5753 77.7935 34.7579 77.3962L0 60.5L21 49L61 69V49L41 38.5L61 29L82 39.5V51.0088Z" fill="#B4E251"/>
<path d="M291.784 52.8024C289.81 52.8024 288.016 52.3022 286.402 51.3017C284.788 50.3012 283.499 48.8005 282.536 46.7996C281.572 44.7987 281.09 42.3146 281.09 39.3473C281.09 36.2663 281.589 33.7311 282.588 31.7415C283.586 29.752 284.893 28.2797 286.507 27.3247C288.132 26.3697 289.88 25.8922 291.749 25.8922C293.154 25.8922 294.356 26.131 295.355 26.6085C296.353 27.0746 297.178 27.6771 297.828 28.4161C298.478 29.1551 298.972 29.9225 299.309 30.7183H299.483V26.2333H308V52.4272H299.57V48.1809H299.309C298.949 48.9881 298.438 49.7442 297.776 50.449C297.114 51.1539 296.284 51.7223 295.285 52.1544C294.298 52.5864 293.131 52.8024 291.784 52.8024ZM294.745 46.3051C295.779 46.3051 296.661 46.0208 297.393 45.4524C298.124 44.8726 298.687 44.0597 299.082 43.0138C299.477 41.9678 299.674 40.74 299.674 39.3302C299.674 37.8978 299.477 36.6642 299.082 35.6297C298.699 34.5951 298.136 33.7993 297.393 33.2422C296.661 32.6851 295.779 32.4066 294.745 32.4066C293.689 32.4066 292.794 32.6908 292.063 33.2593C291.331 33.8277 290.774 34.6292 290.391 35.6638C290.019 36.6983 289.833 37.9205 289.833 39.3302C289.833 40.74 290.025 41.9678 290.408 43.0138C290.791 44.0597 291.343 44.8726 292.063 45.4524C292.794 46.0208 293.689 46.3051 294.745 46.3051Z" fill="white"/>
<path d="M246.934 52.8024C244.96 52.8024 243.166 52.3022 241.552 51.3017C239.938 50.3012 238.649 48.8005 237.685 46.7996C236.721 44.7987 236.24 42.3146 236.24 39.3473C236.24 36.2663 236.739 33.7311 237.737 31.7415C238.736 29.752 240.042 28.2797 241.656 27.3247C243.282 26.3697 245.03 25.8922 246.899 25.8922C248.304 25.8922 249.506 26.131 250.505 26.6085C251.503 27.0746 252.328 27.6771 252.978 28.4161C253.628 29.1551 254.122 29.9225 254.458 30.7183H254.632V26.2333H263.15V48.1809H254.72H254.458C254.098 48.9881 253.587 49.7442 252.926 50.449C252.264 51.1539 251.433 51.7223 250.435 52.1544C249.448 52.5864 248.281 52.8024 246.934 52.8024ZM249.895 46.3051C250.928 46.3051 251.811 46.0208 252.542 45.4524C253.274 44.8726 253.837 44.0597 254.232 43.0138C254.627 41.9678 254.824 40.74 254.824 39.3302C254.824 37.8978 254.627 36.6642 254.232 35.6297C253.849 34.5951 253.286 33.7993 252.542 33.2422C251.811 32.6851 250.928 32.4066 249.895 32.4066C248.838 32.4066 247.944 32.6908 247.213 33.2593C246.481 33.8277 245.924 34.6292 245.54 35.6638C245.169 36.6983 244.983 37.9205 244.983 39.3302C244.983 40.74 245.175 41.9678 245.558 43.0138C245.941 44.0597 246.493 44.8726 247.213 45.4524C247.944 46.0208 248.838 46.3051 249.895 46.3051Z" fill="white"/>
<path d="M268.375 52.8024V26.1917H276.489V52.8024H268.375ZM272.44 23.0906C271.301 23.0906 270.322 22.6979 269.503 21.9125C268.685 21.1156 268.275 20.157 268.275 19.0366C268.275 17.9279 268.685 16.9808 269.503 16.1954C270.322 15.3985 271.301 15 272.44 15C273.59 15 274.569 15.3985 275.377 16.1954C276.195 16.9808 276.605 17.9279 276.605 19.0366C276.605 20.157 276.195 21.1156 275.377 21.9125C274.569 22.6979 273.59 23.0906 272.44 23.0906Z" fill="white"/>
<path d="M217.018 52.8024V26.2552H225.313V31.0945H225.592C226.081 29.3431 226.879 28.0411 227.985 27.1885C229.091 26.3243 230.377 25.8922 231.844 25.8922C232.554 25.8922 233.23 25.9786 233.87 26.1515C234.51 26.3243 235.087 26.5605 235.599 26.8601L233.084 33.808C232.712 33.6236 232.31 33.4681 231.879 33.3413C231.46 33.2146 230.994 33.1512 230.482 33.1512C229.597 33.1512 228.777 33.3701 228.02 33.808C227.275 34.2458 226.681 34.8565 226.239 35.64C225.796 36.412 225.569 37.328 225.558 38.3881V52.8024H217.018Z" fill="white"/>
<path d="M199.817 52.8024C197.014 52.8024 194.595 52.2648 192.56 51.1895C190.537 50.1029 188.979 48.5579 187.886 46.5545C186.804 44.5398 186.263 42.1458 186.263 39.3728C186.263 36.6789 186.81 34.3246 187.903 32.3099C188.996 30.2839 190.537 28.7106 192.526 27.59C194.514 26.4581 196.857 25.8922 199.555 25.8922C201.462 25.8922 203.207 26.1808 204.788 26.7581C206.37 27.3353 207.736 28.1899 208.887 29.3218C210.039 30.4536 210.934 31.8515 211.574 33.5153C212.213 35.1679 212.533 37.0638 212.533 39.203V41.2743H189.246V36.4525H204.596C204.585 35.5697 204.369 34.783 203.951 34.0926C203.532 33.4022 202.957 32.8645 202.224 32.4797C201.503 32.0835 200.672 31.8855 199.73 31.8855C198.776 31.8855 197.921 32.0949 197.165 32.5136C196.41 32.9211 195.811 33.4814 195.369 34.1945C194.927 34.8962 194.694 35.6942 194.671 36.5884V41.495C194.671 42.559 194.886 43.4928 195.316 44.2964C195.747 45.0887 196.357 45.7056 197.148 46.147C197.939 46.5884 198.881 46.8091 199.974 46.8091C200.73 46.8091 201.416 46.7073 202.032 46.5035C202.648 46.2998 203.178 45.9999 203.619 45.6037C204.061 45.2076 204.393 44.7208 204.614 44.1436L212.446 44.3643C212.12 46.0734 211.405 47.5618 210.3 48.8295C209.207 50.0859 207.771 51.065 205.992 51.7667C204.212 52.4572 202.154 52.8024 199.817 52.8024Z" fill="white"/>
<path d="M165.247 37.6524V52.8024H156.79V26.2381H164.832V31.1151H165.126C165.714 29.4895 166.717 28.2154 168.135 27.2931C169.553 26.3592 171.242 25.8922 173.202 25.8922C175.069 25.8922 176.689 26.313 178.061 27.1547C179.444 27.9848 180.517 29.1493 181.277 30.6482C182.05 32.1355 182.43 33.8765 182.419 35.8711V52.8024H173.962V37.5314C173.974 36.0556 173.599 34.9026 172.838 34.0725C172.089 33.2424 171.046 32.8273 169.708 32.8273C168.821 32.8273 168.037 33.0233 167.356 33.4153C166.688 33.7958 166.169 34.3434 165.8 35.0583C165.443 35.7731 165.258 36.6378 165.247 37.6524Z" fill="white"/>
<path d="M132.771 62.4132C131.746 62.4132 130.778 62.3325 129.87 62.1711C128.961 62.0212 128.18 61.8195 127.528 61.5659L129.415 55.4272C130.254 55.7038 131.011 55.8652 131.687 55.9113C132.375 55.9574 132.963 55.8479 133.453 55.5828C133.954 55.3292 134.338 54.8738 134.606 54.2167L134.938 53.4213L125.395 25.8922H134.344L139.29 44.8444H139.57L144.586 25.8922H153.587L143.467 54.9949C142.978 56.4474 142.285 57.727 141.387 58.8337C140.502 59.9519 139.354 60.8281 137.944 61.4621C136.546 62.0961 134.822 62.4132 132.771 62.4132Z" fill="white"/>
<path d="M114.155 27.8808C114.04 26.629 113.527 25.6561 112.617 24.9619C111.718 24.2564 110.433 23.9036 108.762 23.9036C107.656 23.9036 106.734 24.0458 105.996 24.3303C105.259 24.6148 104.706 25.0074 104.337 25.5081C103.968 25.9975 103.778 26.5608 103.766 27.198C103.743 27.7215 103.847 28.1824 104.077 28.5807C104.319 28.979 104.665 29.3317 105.115 29.639C105.576 29.9349 106.129 30.1966 106.774 30.4242C107.419 30.6518 108.145 30.8509 108.952 31.0216L111.994 31.7044C113.746 32.0799 115.29 32.5806 116.627 33.2065C117.975 33.8324 119.104 34.5778 120.015 35.4426C120.937 36.3075 121.634 37.3032 122.106 38.4298C122.579 39.5564 122.821 40.8195 122.832 42.2193C122.821 44.4269 122.256 46.3216 121.138 47.9034C120.021 49.4852 118.413 50.6971 116.316 51.5392C114.23 52.3813 111.712 52.8024 108.762 52.8024C105.8 52.8024 103.219 52.3643 101.018 51.488C98.8169 50.6118 97.1056 49.2804 95.8841 47.4937C94.6626 45.7071 94.0346 43.4483 94 40.7171H102.193C102.263 41.8437 102.568 42.7825 103.109 43.5336C103.651 44.2847 104.394 44.8537 105.339 45.2406C106.296 45.6275 107.402 45.8209 108.658 45.8209C109.811 45.8209 110.79 45.6673 111.597 45.3601C112.415 45.0528 113.043 44.6261 113.481 44.0798C113.919 43.5336 114.143 42.9077 114.155 42.2022C114.143 41.5422 113.936 40.9789 113.533 40.5123C113.129 40.0343 112.507 39.6247 111.666 39.2833C110.836 38.9305 109.776 38.6062 108.485 38.3103L104.786 37.4568C101.721 36.7627 99.3067 35.6418 97.5435 34.0941C95.7804 32.5351 94.9046 30.4299 94.9161 27.7784C94.9046 25.6163 95.4923 23.7215 96.6793 22.0942C97.8662 20.4669 99.5083 19.1981 101.606 18.2877C103.703 17.3773 106.094 16.9221 108.779 16.9221C111.522 16.9221 113.901 17.383 115.918 18.3048C117.946 19.2152 119.519 20.4954 120.637 22.1454C121.755 23.7955 122.325 25.7073 122.348 27.8808H114.155Z" fill="white"/>
<path d="M237.521 55.6857L245.21 55.2145C245.21 55.2145 246.175 57.7536 250.015 57.9282C255.461 57.9282 254.82 51.8413 254.821 49.5988C257.704 49.5988 261.868 49.5988 263.15 49.5988C263.15 56.006 262.509 59.5299 258.985 61.7724C257.776 62.5416 255.34 63.6946 250.335 63.6946C245.331 63.6946 243.581 62.781 241.366 61.4521C238.162 59.53 237.521 55.6857 237.521 55.6857Z" fill="#B4E251"/>
</svg>
