<svg width="299" height="60" viewBox="0 0 299 60" fill="none" xmlns="http://www.w3.org/2000/svg">
<path d="M0 21.1153C0 17.1697 2.19445 13.5515 5.69345 11.7281L25.8561 1.22081C26.5034 0.883461 27.2226 0.707306 27.9526 0.707306H33.7363C34.4234 0.707306 35.1016 0.863409 35.7196 1.16383L62 13.939L46.122 22.6341L15.878 7.51218V21.878L31 29.8171L15.878 37.7561L0 29.8171V21.1153Z" fill="white"/>
<path d="M62 39.2749C62 43.2206 59.8055 46.8387 56.3065 48.6621L36.1439 59.1694C35.4966 59.5068 34.7774 59.6829 34.0474 59.6829H28.2637C27.5766 59.6829 26.8984 59.5268 26.2804 59.2264L4.76837e-07 46.4512L15.878 37.7561L46.122 52.878V37.7561L31 29.8171L46.122 22.6341L62 30.5732V39.2749Z" fill="#B4E251"/>
<path d="M89.6502 48.6001C86.8502 48.6001 84.1669 48.2334 81.6002 47.5001C79.0336 46.7334 76.9669 45.7501 75.4002 44.5501L78.1502 38.4501C79.6502 39.5167 81.4169 40.4001 83.4502 41.1001C85.5169 41.7667 87.6002 42.1001 89.7002 42.1001C91.3002 42.1001 92.5836 41.9501 93.5502 41.6501C94.5502 41.3167 95.2836 40.8667 95.7502 40.3001C96.2169 39.7334 96.4502 39.0834 96.4502 38.3501C96.4502 37.4167 96.0836 36.6834 95.3502 36.1501C94.6169 35.5834 93.6502 35.1334 92.4502 34.8001C91.2502 34.4334 89.9169 34.1001 88.4502 33.8001C87.0169 33.4667 85.5669 33.0667 84.1002 32.6001C82.6669 32.1334 81.3502 31.5334 80.1502 30.8001C78.9502 30.0667 77.9669 29.1001 77.2002 27.9001C76.4669 26.7001 76.1002 25.1667 76.1002 23.3001C76.1002 21.3001 76.6336 19.4834 77.7002 17.8501C78.8002 16.1834 80.4336 14.8667 82.6002 13.9001C84.8002 12.9001 87.5502 12.4001 90.8502 12.4001C93.0502 12.4001 95.2169 12.6667 97.3502 13.2001C99.4836 13.7001 101.367 14.4667 103 15.5001L100.5 21.6501C98.8669 20.7167 97.2336 20.0334 95.6002 19.6001C93.9669 19.1334 92.3669 18.9001 90.8002 18.9001C89.2336 18.9001 87.9502 19.0834 86.9502 19.4501C85.9502 19.8167 85.2336 20.3001 84.8002 20.9001C84.3669 21.4667 84.1502 22.1334 84.1502 22.9001C84.1502 23.8001 84.5169 24.5334 85.2502 25.1001C85.9836 25.6334 86.9502 26.0667 88.1502 26.4001C89.3502 26.7334 90.6669 27.0667 92.1002 27.4001C93.5669 27.7334 95.0169 28.1167 96.4502 28.5501C97.9169 28.9834 99.2502 29.5667 100.45 30.3001C101.65 31.0334 102.617 32.0001 103.35 33.2001C104.117 34.4001 104.5 35.9167 104.5 37.7501C104.5 39.7167 103.95 41.5167 102.85 43.1501C101.75 44.7834 100.1 46.1001 97.9002 47.1001C95.7336 48.1001 92.9836 48.6001 89.6502 48.6001ZM126.785 21.1001H134.585V43.5001C134.585 48.5001 133.318 52.1834 130.785 54.5501C128.252 56.9167 124.635 58.1001 119.935 58.1001C117.468 58.1001 115.102 57.7834 112.835 57.1501C110.568 56.5501 108.652 55.6334 107.085 54.4001L110.185 48.8001C111.318 49.7334 112.702 50.4667 114.335 51.0001C115.968 51.5334 117.618 51.8001 119.285 51.8001C121.918 51.8001 123.818 51.1834 124.985 49.9501C126.185 48.7501 126.785 46.9334 126.785 44.5001V39.4001L128.435 41.3501C127.468 43.1167 126.135 44.4501 124.435 45.3501C122.735 46.2501 120.868 46.7001 118.835 46.7001C116.602 46.7001 114.602 46.2834 112.835 45.4501C111.102 44.5834 109.752 43.2501 108.785 41.4501C107.818 39.6501 107.335 37.3667 107.335 34.6001V21.1001H115.135V33.4501C115.135 35.7167 115.602 37.3834 116.535 38.4501C117.502 39.4834 118.852 40.0001 120.585 40.0001C121.785 40.0001 122.852 39.7334 123.785 39.2001C124.718 38.6667 125.452 37.8667 125.985 36.8001C126.518 35.7334 126.785 34.3834 126.785 32.7501V21.1001ZM156.161 20.7001C158.295 20.7001 160.195 21.1334 161.861 22.0001C163.561 22.8334 164.895 24.1334 165.861 25.9001C166.828 27.6334 167.311 29.8667 167.311 32.6001V48.0001H159.511V33.8001C159.511 31.6334 159.028 30.0334 158.061 29.0001C157.128 27.9667 155.795 27.4501 154.061 27.4501C152.828 27.4501 151.711 27.7167 150.711 28.2501C149.745 28.7501 148.978 29.5334 148.411 30.6001C147.878 31.6667 147.611 33.0334 147.611 34.7001V48.0001H139.811V21.1001H147.261V28.5501L145.861 26.3001C146.828 24.5001 148.211 23.1167 150.011 22.1501C151.811 21.1834 153.861 20.7001 156.161 20.7001ZM185.927 48.4001C182.86 48.4001 180.16 47.8001 177.827 46.6001C175.527 45.4001 173.743 43.7667 172.477 41.7001C171.21 39.6001 170.577 37.2167 170.577 34.5501C170.577 31.8501 171.193 29.4667 172.427 27.4001C173.693 25.3001 175.41 23.6667 177.577 22.5001C179.743 21.3001 182.21 20.7001 184.977 20.7001C187.51 20.7001 189.827 21.2334 191.927 22.3001C194.027 23.3667 195.71 24.9167 196.977 26.9501C198.243 28.9834 198.877 31.4334 198.877 34.3001L177.177 38.5001L177.077 33.9501L194.277 30.6501L191.627 33.3501C191.627 32.0167 191.343 30.8501 190.777 29.8501C190.21 28.8501 189.427 28.0667 188.427 27.5001C187.46 26.9001 186.31 26.6001 184.977 26.6001C183.643 26.6001 182.46 26.9001 181.427 27.5001C180.427 28.0667 179.643 28.9167 179.077 30.0501C178.51 31.1501 178.227 32.5001 178.227 34.1001C178.227 35.8667 178.543 37.3501 179.177 38.5501C179.81 39.7501 180.71 40.6501 181.877 41.2501C183.077 41.8501 184.493 42.1501 186.127 42.1501C187.56 42.1501 188.81 41.9334 189.877 41.5001C190.943 41.0667 191.943 40.4167 192.877 39.5501L197.027 44.0501C195.793 45.4501 194.243 46.5334 192.377 47.3001C190.51 48.0334 188.36 48.4001 185.927 48.4001ZM202.12 48.0001V21.1001H209.57V28.7001L208.52 26.5001C209.32 24.6001 210.603 23.1667 212.37 22.2001C214.136 21.2001 216.286 20.7001 218.82 20.7001V27.9001C218.486 27.8667 218.186 27.8501 217.92 27.8501C217.653 27.8167 217.37 27.8001 217.07 27.8001C214.936 27.8001 213.203 28.4167 211.87 29.6501C210.57 30.8501 209.92 32.7334 209.92 35.3001V48.0001H202.12ZM233.912 58.1001C231.379 58.1001 228.929 57.7834 226.562 57.1501C224.229 56.5501 222.279 55.6334 220.712 54.4001L223.812 48.8001C224.946 49.7334 226.379 50.4667 228.112 51.0001C229.879 51.5667 231.612 51.8501 233.312 51.8501C236.079 51.8501 238.079 51.2334 239.312 50.0001C240.579 48.7667 241.212 46.9334 241.212 44.5001V40.4501L241.712 33.7001L241.612 26.9001V21.1001H249.012V43.5001C249.012 48.5001 247.712 52.1834 245.112 54.5501C242.512 56.9167 238.779 58.1001 233.912 58.1001ZM232.712 46.7001C230.212 46.7001 227.946 46.1667 225.912 45.1001C223.912 44.0001 222.296 42.4834 221.062 40.5501C219.862 38.5834 219.262 36.3001 219.262 33.7001C219.262 31.0667 219.862 28.7834 221.062 26.8501C222.296 24.8834 223.912 23.3667 225.912 22.3001C227.946 21.2334 230.212 20.7001 232.712 20.7001C234.979 20.7001 236.979 21.1667 238.712 22.1001C240.446 23.0001 241.796 24.4167 242.762 26.3501C243.729 28.2501 244.212 30.7001 244.212 33.7001C244.212 36.6667 243.729 39.1167 242.762 41.0501C241.796 42.9501 240.446 44.3667 238.712 45.3001C236.979 46.2334 234.979 46.7001 232.712 46.7001ZM234.262 40.3001C235.629 40.3001 236.846 40.0334 237.912 39.5001C238.979 38.9334 239.812 38.1501 240.412 37.1501C241.012 36.1501 241.312 35.0001 241.312 33.7001C241.312 32.3667 241.012 31.2167 240.412 30.2501C239.812 29.2501 238.979 28.4834 237.912 27.9501C236.846 27.3834 235.629 27.1001 234.262 27.1001C232.896 27.1001 231.679 27.3834 230.612 27.9501C229.546 28.4834 228.696 29.2501 228.062 30.2501C227.462 31.2167 227.162 32.3667 227.162 33.7001C227.162 35.0001 227.462 36.1501 228.062 37.1501C228.696 38.1501 229.546 38.9334 230.612 39.5001C231.679 40.0334 232.896 40.3001 234.262 40.3001ZM254.272 48.0001V21.1001H262.072V48.0001H254.272ZM258.172 17.3501C256.739 17.3501 255.572 16.9334 254.672 16.1001C253.772 15.2667 253.322 14.2334 253.322 13.0001C253.322 11.7667 253.772 10.7334 254.672 9.90006C255.572 9.06673 256.739 8.65006 258.172 8.65006C259.605 8.65006 260.772 9.05006 261.672 9.85006C262.572 10.6167 263.022 11.6167 263.022 12.8501C263.022 14.1501 262.572 15.2334 261.672 16.1001C260.805 16.9334 259.639 17.3501 258.172 17.3501ZM278.761 48.4001C276.228 48.4001 273.945 47.8334 271.911 46.7001C269.878 45.5334 268.261 43.9167 267.061 41.8501C265.895 39.7834 265.311 37.3501 265.311 34.5501C265.311 31.7167 265.895 29.2667 267.061 27.2001C268.261 25.1334 269.878 23.5334 271.911 22.4001C273.945 21.2667 276.228 20.7001 278.761 20.7001C281.028 20.7001 283.011 21.2001 284.711 22.2001C286.411 23.2001 287.728 24.7167 288.661 26.7501C289.595 28.7834 290.061 31.3834 290.061 34.5501C290.061 37.6834 289.611 40.2834 288.711 42.3501C287.811 44.3834 286.511 45.9001 284.811 46.9001C283.145 47.9001 281.128 48.4001 278.761 48.4001ZM280.111 42.0001C281.378 42.0001 282.528 41.7001 283.561 41.1001C284.595 40.5001 285.411 39.6501 286.011 38.5501C286.645 37.4167 286.961 36.0834 286.961 34.5501C286.961 32.9834 286.645 31.6501 286.011 30.5501C285.411 29.4501 284.595 28.6001 283.561 28.0001C282.528 27.4001 281.378 27.1001 280.111 27.1001C278.811 27.1001 277.645 27.4001 276.611 28.0001C275.578 28.6001 274.745 29.4501 274.111 30.5501C273.511 31.6501 273.211 32.9834 273.211 34.5501C273.211 36.0834 273.511 37.4167 274.111 38.5501C274.745 39.6501 275.578 40.5001 276.611 41.1001C277.645 41.7001 278.811 42.0001 280.111 42.0001ZM287.161 48.0001V42.5001L287.311 34.5001L286.811 26.5501V21.1001H294.611V48.0001H287.161Z" fill="white"/>
</svg>
