<svg width="82" height="78" viewBox="0 0 82 78" fill="none" xmlns="http://www.w3.org/2000/svg">
<path d="M0 26.9912C0 21.7728 2.90234 16.9875 7.53005 14.5759L34.1968 0.679154C35.0529 0.232978 36.0041 0 36.9696 0H44.6189C45.5278 0 46.4247 0.206459 47.2421 0.603793L82 17.5L61 29L21 9V28L41 38.5L21 49L0 38.5V26.9912Z" fill="white"/>
<path d="M82 51.0088C82 56.2272 79.0977 61.0125 74.4699 63.4241L47.8032 77.3208C46.9471 77.767 45.9959 78 45.0304 78H37.3811C36.4722 78 35.5753 77.7935 34.7579 77.3962L0 60.5L21 49L61 69V49L41 38.5L61 29L82 39.5V51.0088Z" fill="white"/>
</svg>
